Coordinates
version=1
nRows=16
nColumns=22
inDegrees=yes

Units are S.I. units (second, meters, Newtons, ...)
If the header above contains a line with 'inDegrees', this indicates whether rotational values are in degrees (yes) or radians (no).

endheader
time	pelvis_tilt	pelvis_list	pelvis_rotation	pelvis_tx	pelvis_ty	pelvis_tz	hip_flexion_r	hip_adduction_r	hip_rotation_r	knee_angle_r	ankle_angle_r	subtalar_angle_r	hip_flexion_l	hip_adduction_l	hip_rotation_l	knee_angle_l	ankle_angle_l	subtalar_angle_l	lumbar_extension	lumbar_bending	lumbar_rotation
      3.15000000	     -2.56264640	     -3.68507627	    -24.31709855	     -0.35580801	      0.92430341	     -0.62800131	     -1.35472499	     11.89079257	      9.83773305	    -15.50560265	     14.81831144	     -8.09499588	     30.33476622	     -7.20056632	      9.25180659	    -35.47299516	      5.65915686	      0.52994544	     -8.79087617	      2.80949128	     -1.59013035
      3.16000000	     -2.55652666	     -3.59569998	    -24.73249864	     -0.34846410	      0.92335251	     -0.62555367	     -1.93057749	     11.66838747	     10.15881288	    -15.45036225	     15.21742580	     -8.03378021	     30.31708106	     -6.86136988	      9.66956104	    -32.77239345	      5.48876532	      1.43576132	     -8.85944332	      2.76186333	     -1.35990350
      3.17000000	     -2.55672568	     -3.54767067	    -25.10637403	     -0.34101323	      0.92228827	     -0.62302049	     -2.54308891	     11.49183625	     10.45674812	    -15.35499206	     15.54698448	     -7.99147305	     30.25127971	     -6.58921568	     10.10102952	    -30.09088278	      5.36853849	      2.50077489	     -8.93046935	      2.74462447	     -1.17498246
      3.18000000	     -2.51716397	     -3.49178714	    -25.48117906	     -0.33347234	      0.92115165	     -0.62040153	     -3.15834507	     11.28787345	     10.64463189	    -15.33651367	     15.99083378	     -7.97581292	     30.10389694	     -6.34732836	     10.43176364	    -27.45462998	      5.23996700	      3.25769276	     -9.03558047	      2.68208440	     -0.94302431
      3.19000000	     -2.46467450	     -3.50422915	    -25.82025503	     -0.32578402	      0.91996013	     -0.61764195	     -3.87650278	     11.14881558	     10.84102233	    -15.22806157	     16.31031278	     -8.00620648	     29.90455216	     -6.20320240	     10.71606882	    -24.94517950	      5.20665872	      4.08909526	     -9.17083823	      2.66461134	     -0.75607080
      3.20000000	     -2.39999164	     -3.53819407	    -26.15471932	     -0.31797670	      0.91868459	     -0.61477270	     -4.61660899	     11.02518256	     10.96365820	    -15.14293036	     16.66238401	     -8.07365817	     29.68785428	     -6.11995730	     10.87035981	    -22.62615061	      5.20331726	      4.65246029	     -9.31800882	      2.64693489	     -0.55044881
      3.21000000	     -2.33318258	     -3.60521211	    -26.47772626	     -0.31002188	      0.91733561	     -0.61178692	     -5.40116008	     10.93259792	     11.05549329	    -15.03474488	     16.98449038	     -8.17452315	     29.47742319	     -6.09805519	     10.89847084	    -20.56677305	      5.26663831	      5.02448204	     -9.46616901	      2.64712072	     -0.35004207
      3.22000000	     -2.25485382	     -3.69750986	    -26.79607943	     -0.30192623	      0.91594538	     -0.60867807	     -6.23406904	     10.85599678	     11.11554908	    -14.90612443	     17.29102308	     -8.29923485	     29.27794708	     -6.11732829	     10.78940512	    -18.82601539	      5.38042801	      5.23149659	     -9.62547455	      2.64763209	     -0.14093881
      3.23000000	     -2.19440186	     -3.80732682	    -27.11714943	     -0.29370379	      0.91448038	     -0.60547810	     -7.06924079	     10.80230450	     11.18868857	    -14.78673288	     17.60781954	     -8.41971011	     29.13103910	     -6.16828377	     10.57584707	    -17.45304869	      5.54120688	      5.30282647	     -9.76145884	      2.66851490	      0.05111938
      3.24000000	     -2.14435055	     -3.92110406	    -27.43142432	     -0.28532581	      0.91298648	     -0.60219129	     -7.91090407	     10.74810504	     11.22935676	    -14.66104698	     17.84872020	     -8.55030343	     29.02375352	     -6.21855643	     10.31995858	    -16.45895565	      5.75715229	      5.29234214	     -9.87165036	      2.68521432	      0.25167155
      3.25000000	     -2.13096066	     -4.01267356	    -27.74020545	     -0.27680070	      0.91143208	     -0.59883954	     -8.70715714	     10.68225053	     11.26835932	    -14.55238939	     18.05748680	     -8.66203152	     28.99650723	     -6.24493898	     10.06970360	    -15.86567984	      5.95387251	      5.22537456	     -9.91055663	      2.69080045	      0.45889004
      3.26000000	     -2.18609857	     -4.07455265	    -28.06833814	     -0.26820244	      0.90979335	     -0.59538716	     -9.39390755	     10.61815180	     11.35835432	    -14.51273557	     18.26955983	     -8.71604966	     29.06803255	     -6.26612894	      9.86967573	    -15.65228323	      6.12530774	      5.16392944	     -9.85102389	      2.69450517	      0.63516124
      3.27000000	     -2.26389257	     -4.09267451	    -28.40852958	     -0.25949474	      0.90818340	     -0.59185511	    -10.01798678	     10.51403457	     11.48958601	    -14.51501138	     18.41260938	     -8.75239112	     29.19097706	     -6.23941329	      9.75429544	    -15.80316541	      6.18661894	      5.09079469	     -9.72927250	      2.65586533	      0.84963219
      3.28000000	     -2.38733533	     -4.06146695	    -28.72975592	     -0.25065313	      0.90658935	     -0.58825930	    -10.54953184	     10.38411115	     11.62737201	    -14.56075567	     18.51786486	     -8.74068581	     29.38138476	     -6.15735775	      9.76467062	    -16.26382135	      6.08991437	      5.05512110	     -9.51012191	      2.58952920	      0.99653059
      3.29000000	     -2.57886181	     -3.96030058	    -29.14453603	     -0.24185119	      0.90501933	     -0.58448671	    -10.89529100	     10.22208435	     11.93660304	    -14.77319609	     18.56209174	     -8.70549901	     29.66173337	     -6.07076489	      9.78359296	    -17.01176991	      5.88660706	      4.99735537	     -9.17887237	      2.47550572	      1.24581478
      3.30000000	     -2.81675542	     -3.78523313	    -29.52693606	     -0.23292799	      0.90350980	     -0.58068974	    -11.10928574	     10.02282721	     12.22063670	    -15.06552708	     18.53983719	     -8.62343459	     30.03192997	     -5.90200512	      9.92599622	    -17.99186876	      5.46972312	      4.99175060	     -8.73717981	      2.31583940	      1.42933245
